<svg width="21" height="19" viewBox="0 0 21 19" fill="none" xmlns="http://www.w3.org/2000/svg">
<path d="M7.08259 14.201C5.76716 14.201 4.7009 15.2753 4.7009 16.6004C4.7009 17.9257 5.76716 19 7.08259 19C8.39785 19 9.46411 17.9257 9.46411 16.6004C9.46275 15.2758 8.39734 14.2024 7.08259 14.201Z" fill="white"/>
<path d="M20.4134 4.30743C20.3301 4.19716 20.2006 4.13203 20.0631 4.13099H4.60462L4.28944 2.35339C4.09517 1.25912 3.24387 0.403318 2.15742 0.209826L1.01472 0.0068589C0.776495 -0.0356988 0.549219 0.124194 0.506808 0.364206C0.464568 0.604045 0.623267 0.833202 0.861488 0.87576L2.00847 1.07873C2.7322 1.20795 3.29876 1.77878 3.42702 2.50777L4.97674 11.3164C5.15972 12.3703 6.06866 13.1389 7.13065 13.1379H16.3243C17.2902 13.141 18.1432 12.504 18.4214 11.572L20.479 4.70009C20.5223 4.56622 20.4977 4.41959 20.4134 4.30743Z" fill="white"/>
<path d="M16.2762 14.201C14.9608 14.201 13.8945 15.2753 13.8945 16.6004C13.8945 17.9257 14.9608 19 16.2762 19C17.5915 19 18.6578 17.9257 18.6578 16.6004C18.6564 15.2758 17.591 14.2024 16.2762 14.201Z" fill="white"/>
</svg>
