<svg width="17" height="17" viewBox="0 0 17 17" fill="none" xmlns="http://www.w3.org/2000/svg">
<path d="M16.02 7.78C15.14 5.46 12.82 4.26 10.26 4.74C7.78 2.26 4.34 0.58 0.9 0.5C0.66 0.5 0.5 0.66 0.5 0.9C0.58 4.34 2.26 7.78 4.66 10.26C4.26 12.74 5.38 15.14 7.7 16.02C7.3 14.98 7.22 13.78 7.54 12.58C7.94 12.82 8.34 13.06 8.74 13.22C8.9 13.3 9.06 13.3 9.22 13.14L13.22 9.14C13.3 9.06 13.3 8.9 13.22 8.74C13.06 8.34 12.82 7.94 12.58 7.62C13.78 7.3 14.98 7.38 16.02 7.78ZM7.22 7.22C6.58 7.86 5.62 7.86 4.98 7.22C4.34 6.58 4.34 5.62 4.98 4.98C5.62 4.34 6.58 4.34 7.22 4.98C7.86 5.62 7.86 6.58 7.22 7.22Z" fill="white"/>
<path d="M16.26 12.02L14.58 10.34C14.26 10.02 13.78 10.02 13.46 10.34C13.14 10.66 13.14 11.14 13.46 11.46L15.14 13.14C15.46 13.46 15.94 13.46 16.26 13.14C16.58 12.82 16.58 12.34 16.26 12.02Z" fill="white"/>
<path d="M13.14 15.14L11.46 13.46C11.14 13.14 10.66 13.14 10.34 13.46C10.02 13.78 10.02 14.26 10.34 14.58L12.02 16.26C12.34 16.58 12.82 16.58 13.14 16.26C13.46 15.94 13.46 15.46 13.14 15.14Z" fill="white"/>
<path d="M15.3 14.26L12.98 11.94C12.66 11.62 12.18 11.62 11.86 11.94C11.54 12.26 11.54 12.74 11.86 13.06L14.18 15.38C14.5 15.7 14.98 15.7 15.3 15.38C15.62 15.06 15.62 14.58 15.3 14.26Z" fill="white"/>
</svg>
