<svg width="241" height="75" viewBox="0 0 241 75" fill="none" xmlns="http://www.w3.org/2000/svg">
<path d="M70.6113 0.776382C71.8222 0.776382 72.7304 1.15469 73.3358 1.83564C73.9413 2.51659 74.1683 3.34887 74.1683 4.40812C74.1683 5.46738 73.8656 6.29966 73.2601 7.05627C72.6547 7.81288 71.7465 8.19119 70.5356 8.19119C69.4003 8.19119 68.4922 7.81288 67.9624 7.05627C67.4326 6.29966 67.1299 5.39172 67.1299 4.40812C67.1299 3.34887 67.4326 2.51659 67.9624 1.83564C68.5678 1.15469 69.476 0.776382 70.6113 0.776382ZM73.7142 13.9414V55.2525H67.7353V13.9414H73.7142Z" fill="white"/>
<path d="M100.733 0.171097V55.2525H96.6458L95.6619 52.68C94.6023 53.6636 93.4671 54.4202 92.1805 54.9499C90.8939 55.4795 89.5317 55.7821 88.1694 55.7821C87.0341 55.7821 85.9746 55.5552 84.915 55.1768C83.8555 54.7985 82.9473 54.1176 82.1905 53.2853C81.4337 52.453 80.8282 51.3938 80.2984 50.1832C79.8444 48.9726 79.6173 47.4594 79.6173 45.7948V23.3991C79.6173 21.7346 79.8444 20.297 80.2984 19.0108C80.7525 17.7245 81.358 16.6653 82.1905 15.833C82.9473 15.0007 83.8555 14.3954 84.915 13.9414C85.9746 13.5631 87.0341 13.3362 88.1694 13.3362C89.3046 13.3362 90.5155 13.5631 91.6507 13.9414C92.786 14.3198 93.8455 14.925 94.8294 15.6817V1.68432L100.733 0.171097ZM85.5962 44.5086C85.5962 46.2488 85.8989 47.5351 86.5801 48.443C87.2612 49.3509 88.3207 49.8049 89.7587 49.8049C91.5751 49.8049 93.2401 49.0483 94.678 47.4594V21.7346C93.1644 20.1457 91.5751 19.3891 89.7587 19.3891C88.2451 19.3891 87.1855 19.843 86.5801 20.751C85.8989 21.6589 85.5962 23.0208 85.5962 24.6853V44.5086Z" fill="white"/>
<path d="M120.183 36.7155C119.275 37.5478 118.14 38.38 116.853 39.288C115.566 40.1959 114.128 41.1795 112.463 42.2388V45.5679C112.463 47.0054 112.842 48.0647 113.674 48.8213C114.507 49.5779 115.491 49.9562 116.777 49.9562C118.064 49.9562 119.123 49.5779 119.956 48.8213C120.788 48.0647 121.167 47.0054 121.167 45.5679V42.9197L126.616 41.4822V45.7192C126.616 47.3081 126.389 48.67 125.859 49.8806C125.329 51.0911 124.648 52.1504 123.664 53.0583C122.756 53.9663 121.697 54.5716 120.486 55.0255C119.275 55.4795 117.988 55.7065 116.55 55.7065C115.112 55.7065 113.826 55.4795 112.69 55.0255C111.48 54.5716 110.42 53.8906 109.512 53.0583C108.604 52.1504 107.922 51.1668 107.393 49.8806C106.863 48.67 106.636 47.2324 106.636 45.7192V23.3991C106.636 21.8859 106.863 20.4483 107.393 19.2377C107.922 18.0272 108.604 16.9679 109.512 16.06C110.42 15.152 111.48 14.5467 112.69 14.0928C113.901 13.6388 115.188 13.4118 116.626 13.4118C117.837 13.4118 119.048 13.5631 120.259 13.9414C121.47 14.3198 122.529 14.925 123.513 15.7573C124.421 16.5896 125.254 17.7245 125.859 19.0864C126.465 20.4483 126.767 22.1885 126.767 24.2314C126.767 26.8039 126.237 29.0737 125.178 30.9652C124.118 32.9324 122.453 34.824 120.183 36.7155ZM112.463 36.4128C114.507 35.1266 116.02 33.916 117.156 32.9324C118.518 31.6462 119.577 30.3599 120.107 29.0737C120.713 27.7875 121.015 26.3499 121.015 24.6853C121.015 22.4912 120.561 21.0536 119.729 20.2213C118.821 19.3891 117.837 18.9351 116.626 18.9351C115.339 18.9351 114.28 19.3891 113.599 20.2213C112.842 21.0536 112.539 22.1885 112.539 23.7018V36.4128H112.463Z" fill="white"/>
<path d="M135.244 0.776382C136.455 0.776382 137.363 1.15469 137.968 1.83564C138.574 2.51659 138.876 3.42453 138.876 4.40812C138.876 5.46738 138.574 6.29966 137.968 7.05627C137.363 7.81288 136.455 8.19119 135.244 8.19119C134.108 8.19119 133.2 7.81288 132.67 7.05627C132.141 6.29966 131.838 5.39172 131.838 4.40812C131.838 3.34887 132.141 2.51659 132.67 1.83564C133.2 1.15469 134.033 0.776382 135.244 0.776382ZM138.347 13.9414V55.2525H132.368V13.9414H138.347Z" fill="white"/>
<path d="M145.007 18.0272C145.99 16.5896 147.353 15.4547 149.093 14.6224C150.834 13.7901 152.65 13.4118 154.618 13.4118C157.872 13.4118 160.37 14.4711 161.959 16.5896C163.549 18.7081 164.381 21.3563 164.381 24.6853V55.2525H160.597L159.537 52.9827C158.478 53.8149 157.343 54.4959 156.056 55.0255C154.77 55.5551 153.407 55.7821 151.969 55.7821C150.834 55.7821 149.775 55.5551 148.715 55.1768C147.655 54.7985 146.747 54.1932 145.915 53.361C145.082 52.5287 144.477 51.4694 144.023 50.1075C143.569 48.7456 143.342 47.0811 143.342 45.1139C143.342 43.6007 143.493 42.1631 143.796 40.9525C144.098 39.6663 144.628 38.5314 145.309 37.3964C145.99 36.2615 146.899 35.2023 147.958 34.0673C149.018 33.0081 150.304 31.8732 151.818 30.7382C152.802 29.9816 153.861 29.225 155.072 28.4684C156.207 27.7118 157.494 26.8795 158.781 26.0473V24.761C158.781 23.0208 158.402 21.6589 157.57 20.5996C156.737 19.5404 155.526 19.0108 153.861 19.0108C152.726 19.0108 151.667 19.3134 150.683 19.843C149.775 20.3727 148.942 21.2049 148.412 22.1885L145.007 18.0272ZM153.71 50.1075C154.618 50.1075 155.526 49.8806 156.359 49.5022C157.191 49.1239 157.948 48.5186 158.705 47.762V31.8732C157.872 32.4028 157.191 32.8568 156.51 33.2351C155.905 33.689 155.299 34.0673 154.694 34.5213C152.575 36.1859 151.137 37.7747 150.38 39.288C149.623 40.8012 149.245 42.4657 149.245 44.1303C149.245 46.2488 149.623 47.762 150.456 48.67C151.288 49.5779 152.423 50.1075 153.71 50.1075Z" fill="white"/>
<path d="M177.323 12.4282C179.82 12.4282 181.864 13.1848 183.377 14.6224C184.891 16.06 185.648 18.4811 185.648 21.7346C185.648 23.2478 185.496 24.534 185.118 25.5933C184.815 26.6525 184.286 27.7118 183.68 28.8467C183.226 29.6033 182.696 30.5113 182.015 31.4192C181.334 32.4028 180.728 33.3107 179.972 34.37C179.291 35.3536 178.609 36.3372 177.928 37.3208C177.247 38.3044 176.642 39.2123 176.112 40.0446C175.733 40.7255 175.431 41.2552 175.128 41.7848C174.901 42.3144 174.674 42.8441 174.523 43.298C174.371 43.8277 174.296 44.3573 174.22 44.8869C174.144 45.4922 174.144 46.1732 174.144 46.9298V50.4102H185.572V55.2525H169.225V46.9298C169.225 45.5679 169.376 44.206 169.679 42.8441C169.982 41.4822 170.511 40.1202 171.344 38.607C171.798 37.8504 172.403 36.9425 173.085 35.9589C173.766 34.9753 174.447 33.9917 175.204 33.0081C175.885 32.0245 176.642 31.0409 177.323 30.0573C178.004 29.0737 178.609 28.1658 179.063 27.4092C179.669 26.3499 180.123 25.3663 180.35 24.3827C180.577 23.4748 180.728 22.4912 180.728 21.5076C180.728 19.9187 180.426 18.7838 179.82 18.1028C179.215 17.4219 178.307 17.1192 177.171 17.1192C175.961 17.1192 175.052 17.4219 174.447 18.0272C173.766 18.6324 173.463 19.5404 173.463 20.751V22.0372H168.922V20.6753C168.922 18.1028 169.679 16.06 171.117 14.5467C172.555 13.1848 174.674 12.4282 177.323 12.4282Z" fill="#FA9401"/>
<path d="M206.385 47.535C206.385 48.897 206.158 50.0319 205.704 51.0911C205.249 52.1504 204.644 52.9827 203.887 53.7393C203.13 54.4959 202.146 55.0255 201.087 55.4038C200.027 55.7821 198.892 55.9335 197.757 55.9335C196.546 55.9335 195.411 55.7821 194.351 55.4038C193.292 55.0255 192.383 54.4959 191.627 53.7393C190.87 52.9827 190.264 52.1504 189.81 51.0911C189.356 50.0319 189.129 48.897 189.129 47.535V20.8266C189.129 19.4647 189.356 18.3298 189.81 17.2705C190.264 16.2113 190.87 15.379 191.627 14.6224C192.383 13.9414 193.292 13.3362 194.351 12.9578C195.411 12.5795 196.546 12.3526 197.757 12.3526C198.968 12.3526 200.027 12.5795 201.087 12.9578C202.146 13.3362 203.055 13.9414 203.887 14.6224C204.644 15.3033 205.325 16.2113 205.704 17.2705C206.158 18.3298 206.385 19.4647 206.385 20.8266V47.535ZM193.973 47.4594C193.973 48.67 194.351 49.5779 195.032 50.2589C195.713 50.8641 196.622 51.1668 197.757 51.1668C198.892 51.1668 199.8 50.8641 200.481 50.2589C201.163 49.6536 201.541 48.7456 201.541 47.4594V20.9023C201.541 19.6917 201.163 18.7838 200.481 18.1028C199.8 17.4975 198.892 17.1949 197.757 17.1949C196.622 17.1949 195.713 17.4975 195.032 18.1028C194.351 18.7081 193.973 19.616 193.973 20.9023V47.4594Z" fill="#FA9401"/>
<path d="M228.105 47.535C228.105 48.897 227.878 50.0319 227.424 51.0911C226.97 52.1504 226.365 52.9827 225.608 53.7393C224.851 54.4959 223.867 55.0255 222.808 55.4038C221.748 55.7821 220.613 55.9335 219.478 55.9335C218.267 55.9335 217.131 55.7821 216.072 55.4038C215.012 55.0255 214.104 54.4959 213.347 53.7393C212.591 52.9827 211.985 52.1504 211.531 51.0911C211.077 50.0319 210.85 48.897 210.85 47.535V20.8266C210.85 19.4647 211.077 18.3298 211.531 17.2705C211.985 16.2113 212.591 15.379 213.347 14.6224C214.104 13.9414 215.012 13.3362 216.072 12.9578C217.131 12.5795 218.267 12.3526 219.478 12.3526C220.689 12.3526 221.748 12.5795 222.808 12.9578C223.867 13.3362 224.775 13.9414 225.608 14.6224C226.365 15.3033 227.046 16.2113 227.424 17.2705C227.878 18.3298 228.105 19.4647 228.105 20.8266V47.535ZM215.694 47.4594C215.694 48.67 216.072 49.5779 216.753 50.2589C217.434 50.8641 218.342 51.1668 219.478 51.1668C220.613 51.1668 221.521 50.8641 222.202 50.2589C222.883 49.6536 223.262 48.7456 223.262 47.4594V20.9023C223.262 19.6917 222.883 18.7838 222.202 18.1028C221.521 17.4975 220.613 17.1949 219.478 17.1949C218.342 17.1949 217.434 17.4975 216.753 18.1028C216.072 18.7081 215.694 19.616 215.694 20.9023V47.4594Z" fill="#FA9401"/>
<path d="M233.176 16.6652C234.084 16.6652 234.69 16.3626 235.068 15.7573C235.447 15.152 235.598 14.2441 235.598 13.1848H240.517V55.2525H235.598V20.8266H231.057V16.6652H233.176Z" fill="#FA9401"/>
<path d="M74.8494 70.8387C74.3954 71.0656 73.4115 71.3683 72.0492 71.3683C69.249 71.3683 67.4326 69.4768 67.4326 66.9043C67.4326 64.1805 69.4003 62.2133 72.3519 62.2133C73.4115 62.2133 74.3197 62.5159 74.7738 62.7429L74.3954 63.9535C74.0926 63.8022 73.4115 63.5752 72.4276 63.5752C70.3085 63.5752 69.0976 65.0127 69.0976 66.8286C69.0976 68.8715 70.5356 70.082 72.3519 70.082C73.3358 70.082 74.0169 69.7794 74.5467 69.6281L74.8494 70.8387Z" fill="white"/>
<path d="M83.2501 69.0985C83.2501 69.8551 83.2501 70.6117 83.4015 71.217H81.9635L81.8121 70.0821H81.7365C81.2824 70.763 80.2228 71.444 78.8605 71.444C76.9685 71.444 76.0603 70.0821 76.0603 68.9471C76.0603 66.8286 77.8767 65.618 81.6608 65.6937V65.5424C81.6608 65.0127 81.5094 63.4995 79.5417 63.4995C78.6335 63.4995 77.7253 63.8022 77.0442 64.2561L76.6658 63.1969C77.4983 62.6673 78.5578 62.3646 79.7687 62.3646C82.6446 62.3646 83.2501 64.4075 83.2501 66.072V69.0985ZM81.7365 66.753C79.7687 66.6773 77.7253 67.0556 77.7253 68.6445C77.7253 69.6281 78.4064 70.1577 79.3146 70.1577C80.6012 70.1577 81.358 69.3254 81.6608 68.6445C81.7365 68.4932 81.7365 68.2662 81.7365 68.1149V66.753V66.753Z" fill="white"/>
<path d="M87.8668 60.3974V62.5159H90.2886V63.7265H87.8668V68.2662C87.8668 69.3254 88.1695 70.0821 89.1534 70.0821C89.6074 70.0821 89.9102 70.0064 90.1372 69.9307L90.2129 71.1413C89.9102 71.2926 89.3804 71.3683 88.6993 71.3683C87.9424 71.3683 87.337 71.0657 86.9586 70.6117C86.5045 70.0821 86.3531 69.2498 86.3531 68.3418V63.6508H84.9908V62.4403H86.3531V60.7757L87.8668 60.3974Z" fill="white"/>
<path d="M98.6893 69.0985C98.6893 69.8551 98.6893 70.6117 98.8407 71.217H97.4027L97.2513 70.0821H97.1757C96.7216 70.763 95.662 71.444 94.2997 71.444C92.4077 71.444 91.4995 70.0821 91.4995 68.9471C91.4995 66.8286 93.3159 65.618 97.1 65.6937V65.5424C97.1 65.0127 96.9486 63.4995 94.9809 63.4995C94.0727 63.4995 93.1645 63.8022 92.4834 64.2561L92.105 63.1969C92.9375 62.6672 93.997 62.3646 95.2079 62.3646C98.0838 62.3646 98.6893 64.4075 98.6893 66.072V69.0985ZM97.1 66.753C95.1322 66.6773 93.0888 67.0556 93.0888 68.6445C93.0888 69.6281 93.77 70.1577 94.6782 70.1577C95.9647 70.1577 96.7216 69.3254 97.0243 68.6445C97.1 68.4932 97.1 68.2662 97.1 68.1149V66.753ZM97.7811 58.6572L95.5107 61.3053H94.3754L95.9647 58.6572H97.7811Z" fill="white"/>
<path d="M101.338 58.3546H102.927V71.217H101.338V58.3546Z" fill="white"/>
<path d="M109.512 71.444C106.939 71.444 104.971 69.6281 104.971 66.9799C104.971 64.1048 107.014 62.2889 109.587 62.2889C112.312 62.2889 114.128 64.1805 114.128 66.753C114.204 69.9307 111.782 71.444 109.512 71.444ZM109.587 70.2334C111.177 70.2334 112.539 69.0228 112.539 66.8286C112.539 65.3154 111.631 63.4995 109.587 63.4995C107.544 63.4995 106.636 65.1641 106.636 66.9043C106.636 68.9471 107.998 70.2334 109.587 70.2334Z" fill="white"/>
<path d="M124.194 69.8551C124.194 71.7466 123.74 73.1085 122.832 73.9408C121.924 74.773 120.561 75 119.502 75C118.367 75 117.156 74.6974 116.399 74.1678L116.777 72.8815C117.383 73.2598 118.367 73.6381 119.578 73.6381C121.318 73.6381 122.605 72.7302 122.605 70.4604V69.4768C122.075 70.309 121.091 71.0656 119.578 71.0656C117.231 71.0656 115.642 69.1741 115.642 66.8286C115.642 63.9535 117.685 62.2133 119.805 62.2133C121.47 62.2133 122.378 63.0455 122.832 63.8778L122.908 62.4403H124.345C124.27 63.0455 124.27 63.7265 124.27 64.7101V69.8551H124.194ZM122.605 66.072C122.605 65.7694 122.605 65.5424 122.529 65.3154C122.226 64.2561 121.318 63.4995 120.032 63.4995C118.442 63.4995 117.156 64.7858 117.156 66.8286C117.156 68.3418 118.064 69.9307 119.956 69.9307C121.091 69.9307 122.075 69.1741 122.378 68.1905C122.453 67.9635 122.529 67.5852 122.529 67.3582V66.072H122.605Z" fill="white"/>
<path d="M130.778 71.444C128.205 71.444 126.238 69.6281 126.238 66.9799C126.238 64.1048 128.281 62.2889 130.854 62.2889C133.579 62.2889 135.395 64.1805 135.395 66.753C135.471 69.9307 133.049 71.444 130.778 71.444ZM130.854 70.2334C132.443 70.2334 133.806 69.0228 133.806 66.8286C133.806 65.3154 132.898 63.4995 130.854 63.4995C128.811 63.4995 127.903 65.1641 127.903 66.9043C127.903 68.9471 129.265 70.2334 130.854 70.2334Z" fill="white"/>
<path d="M137.363 69.5524C137.893 69.8551 138.801 70.2334 139.633 70.2334C140.844 70.2334 141.374 69.6281 141.374 68.9471C141.374 68.1905 140.844 67.8122 139.633 67.4339C137.968 66.9043 137.211 65.9963 137.211 64.9371C137.211 63.4995 138.347 62.3646 140.314 62.3646C141.223 62.3646 142.055 62.5916 142.585 62.9699L142.206 64.1805C141.904 63.9535 141.147 63.6508 140.239 63.6508C139.255 63.6508 138.725 64.1805 138.725 64.8614C138.725 65.618 139.331 65.9207 140.541 66.299C142.206 66.8286 142.888 67.5852 142.888 68.8715C142.888 70.309 141.752 71.5196 139.482 71.5196C138.498 71.5196 137.514 71.217 136.909 70.8387L137.363 69.5524Z" fill="white"/>
<path d="M149.926 61.0027C149.321 61.0027 148.942 60.5487 148.942 60.0191C148.942 59.4895 149.321 59.0355 149.926 59.0355C150.531 59.0355 150.91 59.4895 150.91 60.0191C150.986 60.5487 150.607 61.0027 149.926 61.0027ZM149.169 71.217V62.5159H150.759V71.217H149.169Z" fill="white"/>
<path d="M153.559 64.9371C153.559 64.0292 153.559 63.2725 153.483 62.5159H154.921L154.997 64.0291H155.072C155.526 63.1969 156.586 62.2889 158.175 62.2889C159.311 62.2889 161.43 62.9699 161.43 66.2233V71.217H159.84V66.3746C159.84 64.8614 159.235 63.6508 157.646 63.6508C156.51 63.6508 155.602 64.4831 155.299 65.3154C155.224 65.5424 155.148 65.7694 155.148 66.072V71.217H153.559V64.9371V64.9371Z" fill="white"/>
<path d="M166.046 60.3974V62.5159H168.468V63.7265H166.046V68.2662C166.046 69.3254 166.349 70.0821 167.333 70.0821C167.787 70.0821 168.09 70.0064 168.317 69.9307L168.392 71.1413C168.09 71.2926 167.56 71.3683 166.879 71.3683C166.122 71.3683 165.516 71.0657 165.138 70.6117C164.684 70.0821 164.533 69.2498 164.533 68.3418V63.6508H163.17V62.4403H164.533V60.7757L166.046 60.3974Z" fill="white"/>
<path d="M171.117 67.2069C171.117 69.1741 172.555 70.1577 174.296 70.1577C175.582 70.1577 176.339 69.9307 176.944 69.7037L177.247 70.8387C176.717 71.0656 175.658 71.444 174.068 71.444C171.268 71.444 169.528 69.6281 169.528 67.0556C169.528 64.4831 171.193 62.2889 173.917 62.2889C177.02 62.2889 177.777 65.0127 177.777 66.4503C177.777 66.753 177.777 66.9799 177.701 67.2069H171.117V67.2069ZM176.263 66.072C176.263 65.3154 175.961 63.4995 173.841 63.4995C172.025 63.4995 171.268 65.0127 171.117 66.072H176.263Z" fill="white"/>
<path d="M179.82 58.3546H181.41V71.217H179.82V58.3546Z" fill="white"/>
<path d="M184.967 61.0027C184.361 61.0027 183.983 60.5487 183.983 60.0191C183.983 59.4895 184.361 59.0355 184.967 59.0355C185.572 59.0355 185.951 59.4895 185.951 60.0191C186.026 60.5487 185.648 61.0027 184.967 61.0027ZM184.21 71.217V62.5159H185.799V71.217H184.21Z" fill="white"/>
<path d="M196.546 69.8551C196.546 71.7466 196.092 73.1085 195.184 73.9408C194.276 74.773 192.913 75 191.854 75C190.719 75 189.508 74.6974 188.751 74.1678L189.129 72.8815C189.735 73.2598 190.719 73.6381 191.93 73.6381C193.67 73.6381 194.957 72.7302 194.957 70.4604V69.4768C194.427 70.309 193.443 71.0656 191.93 71.0656C189.659 71.0656 187.994 69.1741 187.994 66.8286C187.994 63.9535 190.037 62.2133 192.157 62.2133C193.822 62.2133 194.73 63.0455 195.184 63.8778L195.26 62.4403H196.697C196.622 63.0455 196.622 63.7265 196.622 64.7101V69.8551H196.546ZM194.957 66.072C194.957 65.7694 194.957 65.5424 194.881 65.3154C194.578 64.2561 193.67 63.4995 192.384 63.4995C190.719 63.4995 189.508 64.7858 189.508 66.8286C189.508 68.3418 190.416 69.9307 192.308 69.9307C193.443 69.9307 194.427 69.1741 194.73 68.1905C194.805 67.9635 194.881 67.5852 194.881 67.3582V66.072H194.957Z" fill="white"/>
<path d="M200.103 67.2069C200.103 69.1741 201.541 70.1577 203.282 70.1577C204.568 70.1577 205.325 69.9307 205.931 69.7037L206.233 70.8387C205.704 71.0656 204.644 71.444 203.055 71.444C200.254 71.444 198.514 69.6281 198.514 67.0556C198.514 64.4831 200.103 62.2889 202.903 62.2889C206.006 62.2889 206.763 65.0127 206.763 66.4503C206.763 66.753 206.763 66.9799 206.687 67.2069H200.103V67.2069ZM205.25 66.072C205.25 65.3154 204.947 63.4995 202.828 63.4995C201.011 63.4995 200.254 65.0127 200.103 66.072H205.25Z" fill="white"/>
<path d="M208.882 64.9371C208.882 64.0292 208.882 63.2725 208.807 62.5159H210.244L210.32 64.0291H210.396C210.85 63.1969 211.909 62.2889 213.499 62.2889C214.634 62.2889 216.753 62.9699 216.753 66.2233V71.217H215.164V66.3746C215.164 64.8614 214.558 63.6508 212.969 63.6508C211.834 63.6508 210.926 64.4831 210.623 65.3154C210.547 65.5424 210.472 65.7694 210.472 66.072V71.217H208.882V64.9371Z" fill="white"/>
<path d="M221.37 60.3974V62.5159H223.792V63.7265H221.37V68.2662C221.37 69.3254 221.672 70.0821 222.656 70.0821C223.11 70.0821 223.413 70.0064 223.64 69.9307L223.716 71.1413C223.413 71.2926 222.883 71.3683 222.202 71.3683C221.445 71.3683 220.84 71.0657 220.462 70.6117C220.007 70.0821 219.856 69.2498 219.856 68.3418V63.6508H218.494V62.4403H219.856V60.7757L221.37 60.3974Z" fill="white"/>
<path d="M226.44 67.2069C226.44 69.1741 227.878 70.1577 229.619 70.1577C230.906 70.1577 231.662 69.9307 232.268 69.7037L232.571 70.8387C232.041 71.0656 230.981 71.444 229.392 71.444C226.592 71.444 224.851 69.6281 224.851 67.0556C224.851 64.4831 226.44 62.2889 229.241 62.2889C232.344 62.2889 233.1 65.0127 233.1 66.4503C233.1 66.753 233.1 66.9799 233.025 67.2069H226.44V67.2069ZM231.587 66.072C231.587 65.3154 231.284 63.4995 229.165 63.4995C227.349 63.4995 226.592 65.0127 226.44 66.072H231.587Z" fill="white"/>
<path d="M234.993 69.5524C235.522 69.8551 236.431 70.2334 237.263 70.2334C238.474 70.2334 239.004 69.6281 239.004 68.9471C239.004 68.1905 238.474 67.8122 237.263 67.4339C235.598 66.9043 234.841 65.9963 234.841 64.9371C234.841 63.4995 235.976 62.3646 237.944 62.3646C238.852 62.3646 239.685 62.5916 240.215 62.9699L239.836 64.1805C239.533 63.9535 238.777 63.6508 237.868 63.6508C236.885 63.6508 236.355 64.1805 236.355 64.8614C236.355 65.618 236.96 65.9207 238.171 66.299C239.836 66.8286 240.517 67.5852 240.517 68.8715C240.517 70.309 239.382 71.5196 237.112 71.5196C236.128 71.5196 235.144 71.217 234.538 70.8387L234.993 69.5524Z" fill="white"/>
<path d="M57.4426 28.998C56.4587 25.3662 56.0046 23.4747 55.3992 20.5239C54.7937 20.5996 49.3446 17.1191 50.0258 11.2932C47.3012 8.94771 46.0146 7.58581 43.2901 5.01333C42.9874 5.61862 40.3385 6.60221 37.841 5.61862C35.3435 4.63502 33.2244 2.89481 32.6946 0.322327C28.3051 0.095343 26.413 -0.0559795 22.2505 0.0196817C22.7803 1.38158 22.7046 2.21386 22.3262 3.42444C21.9478 4.71068 20.5855 5.99692 19.2232 6.60221C15.6662 8.11544 11.2766 5.92126 10.3684 5.24031C7.71956 8.49375 5.29774 11.3689 2.64887 15.1519C4.99501 16.2869 6.20592 20.2969 6.20592 22.4911C6.20592 25.8202 3.70842 29.9059 0 30.2085C1.43796 36.0345 2.27046 38.153 4.16251 44.3572C12.7903 44.1302 15.4391 51.1667 14.3796 55.782C18.088 57.2953 21.5694 59.1111 25.0507 60.4731V52.3773C14.758 48.1403 8.09797 35.8075 9.76297 24.307C10.7468 17.5731 14.5309 11.8228 20.0557 8.72073C25.2021 5.76994 31.181 5.39163 37.0842 7.58581C37.3869 7.66147 37.6896 7.81279 37.9167 7.88846C47.831 11.9742 54.1883 22.6424 53.053 33.689C52.2962 41.0281 48.5121 47.081 42.0792 50.7127L40.9439 59.0355C43.063 58.1276 45.0308 56.9926 46.8471 55.5551C46.0146 52.6043 50.934 46.7784 53.7342 47.3836C54.9451 43.9789 55.5506 42.39 56.7615 39.2122C54.3396 38.9852 54.5667 29.3763 57.4426 28.998Z" fill="white"/>
<path d="M41.7765 62.9699L24.748 65.618L24.8994 70.536L29.3646 70.9143C29.516 73.1085 31.3324 74.8487 33.4515 74.8487C35.5706 74.8487 37.3113 73.1085 37.5383 70.9143L42.0035 70.536L41.7765 62.9699Z" fill="white"/>
<path d="M42.1548 50.7884C46.1659 47.9889 48.8905 43.7519 50.1014 39.1366C51.3123 34.5212 51.4637 28.771 49.7987 24.4583C48.2093 20.1456 45.9389 16.5138 42.3818 13.9414C38.8248 11.3689 34.6623 10.007 29.97 10.3853C25.8075 10.6879 20.9638 12.8821 18.0879 15.9842C15.212 19.0863 13.4713 23.399 13.2443 27.863C12.9415 32.3271 14.1525 36.9424 16.4229 40.8768C18.6177 44.8112 22.0234 48.1403 26.0345 50.0318L27.0184 50.4858L26.9427 51.4694C26.7913 54.7228 26.7157 57.9762 26.4886 61.2297C26.4886 61.2297 30.7268 61.0783 32.8459 61.0783C35.3434 61.0027 37.8409 61.0027 40.3384 61.0027C37.8409 61.4566 35.4191 61.835 32.9216 62.2889C30.4241 62.6672 27.9266 63.0455 25.5048 63.4238L24.4452 63.5752L24.3695 62.3646C24.1425 59.1112 23.9154 52.6043 23.9154 52.6043C23.9154 52.6043 23.8397 52.6043 23.7641 52.5286C14.6065 48.5186 8.32494 38.38 8.62767 27.5604C8.77904 22.0371 10.8981 16.4382 14.6065 12.3525C18.315 8.34243 23.6127 5.92127 28.9104 5.76994C31.5593 5.69428 34.2082 6.14825 36.63 7.05619C39.0518 7.96412 41.398 9.25036 43.5171 10.8393C47.6796 14.0927 50.7825 18.7837 52.2962 23.853C53.8098 28.998 53.6584 34.5969 51.8421 39.5149C50.1014 44.5842 46.5443 48.7456 42.1548 50.7884Z" fill="#FA9401"/>
</svg>
